#!OML:ASF H:\Terrain\Patient Classification 1\Animal1\Tuesday\Animal1.ASF
:FULLY-SPECIFIED
:DEGREES
3738
root 11.4216 15.5827 -26.708 -345.572 1.85117 0.990035
lowerback 28.5596 -1.24925 -0.819086
upperback 10.7758 -1.82982 -1.17137
thorax -3.68644 -0.868143 -0.25672
lowerneck -11.1696 1.71803 -2.73045
upperneck -21.3591 3.88592 8.14758
head -4.83418 1.77658 3.00819
rclavicle 2.94201e-014 1.63003e-014
rhumerus -1.43805 11.0029 -84.4973
rradius 105.182
rwrist 10.3519
rhand -0.929216 16.6801
rfingers 7.12502
rthumb 24.7001 -11.7455
lclavicle 2.94201e-014 1.63003e-014
lhumerus -1.37208 -22.6665 86.5733
lradius 110.104
lwrist -55.6996
lhand 10.2521 52.4167
lfingers 7.12502
lthumb 35.3654 78.8866
rfemur -41.0915 6.48799 13.1948
rtibia 39.519
rfoot -1.24762 -22.4547
rtoes -12.0106
lfemur -39.2256 -2.55563 -16.2406
ltibia 39.9429
lfoot -15.6901 6.88496
ltoes -16.7728
3739
root 11.4163 15.5818 -26.7165 -345.585 1.8331 1.09826
lowerback 28.5824 -1.14816 -1.0807
upperback 10.7227 -1.76509 -1.08033
thorax -3.74502 -0.843877 -0.0255999
lowerneck -11.2213 1.72741 -2.702
upperneck -21.2712 3.86589 7.9911
head -4.79564 1.77479 2.95339
rclavicle -1.59028e-015 -4.77083e-015
rhumerus -1.52462 11.1811 -84.3333
rradius 105.33
rwrist 10.1081
rhand -0.0714302 16.1378
rfingers 7.12502
rthumb 25.522 -12.1728
lclavicle -1.59028e-015 -4.77083e-015
lhumerus -1.57402 -22.5565 86.8125
lradius 110.035
lwrist -55.3724
lhand 10.0753 52.2839
lfingers 7.12502
lthumb 35.1978 78.7936
rfemur -41.1561 6.44207 13.1107
rtibia 39.61
rfoot -1.23537 -22.4663
rtoes -11.9154
lfemur -39.2235 -2.52369 -16.3625
ltibia 39.9107
lfoot -15.6359 6.90976
ltoes -17.448
3740
root 11.4102 15.5799 -26.7233 -345.643 1.90433 1.05741
lowerback 28.8099 -1.13973 -1.05934
upperback 10.5854 -1.75071 -1.02965
thorax -4.00326 -0.835215 0.0194842
lowerneck -11.4514 1.69728 -2.71386
upperneck -20.9485 3.81141 8.05243
head -4.6562 1.75763 2.97644
rclavicle -8.34896e-015 -2.78299e-015
rhumerus -1.78616 11.3647 -84.2904
rradius 105.506
rwrist 9.86295
rhand -0.300128 15.6663
rfingers 7.12502
rthumb 25.3029 -12.6754
lclavicle -8.34896e-015 -2.78299e-015
lhumerus -1.90206 -22.6071 87.0349
lradius 110.027
lwrist -55.1852
lhand 9.69259 52.0363
lfingers 7.12502
lthumb 34.8347 78.6308
rfemur -41.1359 6.4567 13.1809
rtibia 39.6748
rfoot -1.27838 -22.6359
rtoes -12.2544
lfemur -39.1998 -2.56282 -16.292
ltibia 39.8791
lfoot -15.5261 6.96414
ltoes -18.3651
3741
root 11.4021 15.5791 -26.7329 -345.742 1.99107 1.06446
lowerback 28.969 -1.16003 -1.05607
upperback 10.577 -1.77468 -1.00354
thorax -4.0853 -0.846122 0.0567481
lowerneck -11.6431 1.668 -2.82193
upperneck -20.7754 3.78176 8.14687
head -4.57295 1.75489 3.02675
rclavicle -1.98785e-014 -2.38542e-015
rhumerus -1.72052 11.5315 -84.2188
rradius 105.557
rwrist 9.73768
rhand -0.762855 15.7179
rfingers 7.12502
rthumb 24.8595 -12.6858
lclavicle -1.98785e-014 -2.38542e-015
lhumerus -2.00847 -22.5716 87.1584
lradius 110.075
lwrist -55.1152
lhand 9.56317 51.7699
lfingers 7.12502
lthumb 34.7119 78.3927
rfemur -41.0821 6.47767 13.1946
rtibia 39.7294
rfoot -1.29272 -22.7735
rtoes -12.2136
lfemur -39.1576 -2.71168 -16.2163
ltibia 39.8904
lfoot -15.5107 6.89716
ltoes -17.9961
3742
root 11.3943 15.5772 -26.7407 -345.836 2.02245 1.17757
lowerback 29.1344 -1.16219 -1.16629
upperback 10.5354 -1.80697 -0.982023
thorax -4.20378 -0.862669 0.157439
lowerneck -11.7439 1.62388 -3.05269
upperneck -20.5861 3.73798 8.23417
head -4.49918 1.75252 3.09422
rclavicle 6.75868e-015 3.57812e-015
rhumerus -1.65112 11.7147 -84.1307
rradius 105.501
rwrist 9.77349
rhand -0.625037 16.3066
rfingers 7.12502
rthumb 24.9916 -12.0788
lclavicle 6.75868e-015 3.57812e-015
lhumerus -2.11624 -22.5182 87.3176
lradius 110.085
lwrist -55.0208
lhand 10.1525 52.3634
lfingers 7.12502
lthumb 35.2709 78.8557
rfemur -41.0528 6.46861 13.0984
rtibia 39.7842
rfoot -0.9984 -22.885
rtoes -13.0464
lfemur -39.1117 -2.86099 -16.2619
ltibia 39.9056
lfoot -15.5808 6.75775
ltoes -16.3226
3743
root 11.389 15.5691 -26.7459 -345.891 2.18055 1.17882
lowerback 29.3614 -1.21743 -1.12753
upperback 10.3787 -1.86349 -0.886409
thorax -4.48191 -0.887859 0.26519
lowerneck -11.6018 1.61889 -3.39433
upperneck -20.5268 3.78088 8.42464
head -4.51071 1.78866 3.21036
rclavicle 8.34896e-015 -1.39149e-015
rhumerus -1.76279 11.9191 -84.0141
rradius 105.409
rwrist 9.79587
rhand -0.510561 16.4931
rfingers 7.12502
rthumb 25.1013 -11.877
lclavicle 8.34896e-015 -1.39149e-015
lhumerus -2.50922 -22.5693 87.6204
lradius 110.192
lwrist -55.2356
lhand 10.569 53.1006
lfingers 7.12502
lthumb 35.6658 79.4985
rfemur -41.0272 6.34222 13.1579
rtibia 39.8188
rfoot -0.737163 -23.0306
rtoes -14.1505
lfemur -39.1327 -3.0738 -16.1885
ltibia 39.9023
lfoot -15.4909 6.86378
ltoes -16.2068
3744
root 11.3816 15.5671 -26.7568 -345.874 2.35422 1.1938
lowerback 29.3454 -1.28125 -1.04771
upperback 10.3796 -1.92062 -0.893055
thorax -4.47598 -0.913319 0.229861
lowerneck -11.5459 1.61501 -3.51619
upperneck -20.6133 3.82655 8.65221
head -4.5524 1.8079 3.30358
rclavicle 1.70955e-014 -7.35503e-015
rhumerus -1.54847 11.994 -83.9863
rradius 105.241
rwrist 9.77212
rhand -0.669423 16.486
rfingers 7.12502
rthumb 24.949 -11.9053
lclavicle 1.70955e-014 -7.35503e-015
lhumerus -2.62432 -22.7274 87.6138
lradius 110.378
lwrist -55.7363
lhand 10.6786 53.4055
lfingers 7.12502
lthumb 35.7697 79.7782
rfemur -41.0449 6.1914 13.2096
rtibia 39.8068
rfoot -0.709697 -22.9937
rtoes -14.1075
lfemur -39.2247 -3.28865 -16.1107
ltibia 39.9041
lfoot -15.4255 6.98658
ltoes -16.2085
3745
root 11.3707 15.5754 -26.7688 -345.788 2.30286 1.18958
lowerback 28.8655 -1.28751 -0.934259
upperback 10.6182 -1.90148 -1.06511
thorax -3.99688 -0.903056 -0.0439991
lowerneck -11.6637 1.57184 -3.36264
upperneck -20.7042 3.78792 8.80562
head -4.55922 1.77228 3.32949
rclavicle -2.0276e-014 -9.14409e-015
rhumerus -1.14582 11.9441 -84.1169
rradius 105.266
rwrist 9.77318
rhand -0.370039 16.3353
rfingers 7.12502
rthumb 25.2359 -12.0159
lclavicle -2.0276e-014 -9.14409e-015
lhumerus -2.20028 -22.9332 87.1971
lradius 110.419
lwrist -55.8971
lhand 10.7625 53.8276
lfingers 7.12502
lthumb 35.8492 80.181
rfemur -41.1339 6.19629 13.2589
rtibia 39.7446
rfoot -0.472804 -22.8119
rtoes -14.2334
lfemur -39.3435 -3.30162 -16.0321
ltibia 39.9276
lfoot -15.4747 6.95231
ltoes -15.0586
3746
root 11.3623 15.5781 -26.7751 -345.719 2.19881 0.98687
lowerback 28.8481 -1.24996 -0.796549
upperback 10.5282 -1.82074 -1.04587
thorax -4.09389 -0.862132 -0.125781
lowerneck -11.7693 1.5646 -3.3085
upperneck -20.5441 3.75613 8.76693
head -4.48991 1.76012 3.30812
rclavicle 1.43125e-014 1.19271e-015
rhumerus -1.33439 12.0794 -84.1202
rradius 105.474
rwrist 9.75764
rhand 0.0841198 15.8515
rfingers 7.12502
rthumb 25.6709 -12.4376
lclavicle 1.43125e-014 1.19271e-015
lhumerus -2.33104 -22.9914 87.2569
lradius 110.441
lwrist -55.879
lhand 10.7956 54.2595
lfingers 7.12502
lthumb 35.8806 80.6053
rfemur -41.1984 6.26381 13.5116
rtibia 39.6442
rfoot -0.439983 -22.7808
rtoes -14.4362
lfemur -39.4355 -3.26398 -15.7639
ltibia 39.9631
lfoot -15.4393 7.06557
ltoes -15.1438
3747
root 11.3568 15.5755 -26.7811 -345.78 2.13964 0.835827
lowerback 28.7448 -1.26577 -0.639645
upperback 10.6291 -1.8011 -1.08639
thorax -3.9393 -0.850261 -0.269679
lowerneck -11.5213 1.62081 -3.18241
upperneck -20.8859 3.83118 8.6475
head -4.63747 1.78043 3.24719
rclavicle 1.43125e-014 7.55382e-015
rhumerus -1.12666 12.148 -84.2404
rradius 105.388
rwrist 9.95977
rhand 0.016126 15.8506
rfingers 7.12502
rthumb 25.6058 -12.448
lclavicle 1.43125e-014 7.55382e-015
lhumerus -2.20698 -22.9843 87.0801
lradius 110.462
lwrist -55.8408
lhand 10.9145 54.291
lfingers 7.12502
lthumb 35.9932 80.6092
rfemur -41.1296 6.34479 13.6815
rtibia 39.5115
rfoot -0.548819 -22.8122
rtoes -14.2624
lfemur -39.3884 -3.29269 -15.5745
ltibia 39.9978
lfoot -15.3381 7.32394
ltoes -16.442
3748
root 11.3557 15.5747 -26.7865 -345.899 2.00713 0.801269
lowerback 29.1676 -1.164 -0.808761
upperback 10.4676 -1.71768 -0.971925
thorax -4.30683 -0.813589 -0.063038
lowerneck -11.7424 1.61835 -3.09948
upperneck -20.5937 3.77186 8.4715
head -4.50606 1.76307 3.17785
rclavicle -1.63003e-014 1.98785e-015
rhumerus -1.21726 12.3191 -84.0975
rradius 105.34
rwrist 10.124
rhand 0.0807263 15.9718
rfingers 7.12502
rthumb 25.6677 -12.3178
lclavicle -1.63003e-014 1.98785e-015
lhumerus -2.52866 -22.9611 87.4032
lradius 110.59
lwrist -55.7719
lhand 10.9314 54.1739
lfingers 7.12502
lthumb 36.0092 80.4881
rfemur -41.0199 6.44503 13.6969
rtibia 39.3683
rfoot -0.0924611 -22.6705
rtoes -15.0604
lfemur -39.2646 -3.41888 -15.4968
ltibia 40.0413
lfoot -15.2931 7.64076
ltoes -16.8544
3749
root 11.354 15.5783 -26.7912 -346.046 1.95001 0.73654
lowerback 29.3683 -1.14237 -0.772516
upperback 10.4509 -1.68174 -0.941686
thorax -4.41828 -0.795689 -0.0582054
lowerneck -12.1324 1.57663 -3.02318
upperneck -20.1882 3.67556 8.45031
head -4.31292 1.72764 3.16111
rclavicle -1.74931e-014 3.97569e-016
rhumerus -1.22443 12.3914 -83.9885
rradius 105.389
rwrist 10.1775
rhand 0.369943 16.0262
rfingers 7.12502
rthumb 25.9447 -12.2232
lclavicle -1.74931e-014 3.97569e-016
lhumerus -2.67232 -22.8491 87.5924
lradius 110.605
lwrist -55.6928
lhand 10.6377 53.4431
lfingers 7.12502
lthumb 35.7309 79.8253
rfemur -40.8363 6.50072 13.784
rtibia 39.2491
rfoot 0.223359 -22.6057
rtoes -15.6603
lfemur -39.1186 -3.57466 -15.3657
ltibia 40.0717
lfoot -15.3648 7.75949
ltoes -15.8545
3750
root 11.3449 15.5816 -26.8018 -346.183 1.95762 0.652755
lowerback 29.5099 -1.14347 -0.721706
upperback 10.4632 -1.6679 -0.902363
thorax -4.46989 -0.788651 -0.0462058
lowerneck -12.0202 1.58668 -3.00995
upperneck -20.2052 3.67875 8.38368
head -4.33483 1.72778 3.13606
rclavicle -1.63003e-014 -1.59028e-015
rhumerus -1.2927 12.5322 -83.9056
rradius 105.339
rwrist 10.7177
rhand -0.5507 16.0826
rfingers 7.12502
rthumb 25.0628 -12.2929
lclavicle -1.63003e-014 -1.59028e-015
lhumerus -2.70402 -22.5858 87.7062
lradius 110.309
lwrist -55.542
lhand 9.84765 52.2211
lfingers 7.12502
lthumb 34.9818 78.7814
rfemur -40.6594 6.57941 13.9205
rtibia 39.15
rfoot 0.181741 -22.6757
rtoes -15.5993
lfemur -39.0311 -3.57422 -15.2298
ltibia 40.1047
lfoot -15.419 7.65555
ltoes -15.095
3751
root 11.3344 15.5783 -26.8158 -346.202 1.89607 0.603091
lowerback 29.3119 -1.13647 -0.657978
upperback 10.5915 -1.6413 -0.929658
thorax -4.23723 -0.776021 -0.126414
lowerneck -11.4922 1.53946 -3.07702
upperneck -20.7207 3.65258 8.38625
head -4.57557 1.696 3.14517
rclavicle 1.55052e-014 -9.93923e-015
rhumerus -1.15141 12.6407 -83.8295
rradius 105.194
rwrist 11.3118
rhand -1.9005 16.266
rfingers 7.12502
rthumb 23.7688 -12.2839
lclavicle 1.55052e-014 -9.93923e-015
lhumerus -2.4149 -22.5016 87.6441
lradius 110.022
lwrist -55.3736
lhand 9.4039 51.7455
lfingers 7.12502
lthumb 34.5607 78.403
rfemur -40.6851 6.70256 13.9854
rtibia 39.0852
rfoot 0.374742 -22.6755
rtoes -16.1294
lfemur -39.0996 -3.45602 -15.1495
ltibia 40.1659
lfoot -15.4226 7.54454
ltoes -14.9608
3752
root 11.3259 15.5756 -26.8258 -346.25 1.8643 0.506609
lowerback 29.2249 -1.16283 -0.508908
upperback 10.6897 -1.63537 -0.956772
thorax -4.0919 -0.770868 -0.246437
lowerneck -11.2029 1.45905 -3.2843
upperneck -21.084 3.60587 8.55502
head -4.7345 1.66612 3.23452
rclavicle -1.59028e-015 1.19271e-015
rhumerus -0.879981 12.5013 -83.7557
rradius 105.233
rwrist 10.5168
rhand -0.595147 17.0755
rfingers 7.12502
rthumb 25.0202 -11.306
lclavicle -1.59028e-015 1.19271e-015
lhumerus -2.22354 -22.4851 87.595
lradius 109.997
lwrist -55.3598
lhand 9.79365 51.856
lfingers 7.12502
lthumb 34.9306 78.4282
rfemur -40.6974 6.83379 14.0961
rtibia 39.0981
rfoot 0.568335 -22.6971
rtoes -16.7804
lfemur -39.1155 -3.37253 -15.0183
ltibia 40.211
lfoot -15.4263 7.44452
ltoes -14.9238
